<?xml version="1.0" encoding="utf-8"?>
<!-- Generator: Adobe Illustrator 22.0.0, SVG Export Plug-In . SVG Version: 6.00 Build 0)  -->
<svg version="1.1" id="Layer_1" xmlns="http://www.w3.org/2000/svg" xmlns:xlink="http://www.w3.org/1999/xlink" x="0px" y="0px"
	 viewBox="0 0 500 500" style="enable-background:new 0 0 500 500;" xml:space="preserve">
<style type="text/css">
	.st0{fill:#C9C9C9;}
	.st1{fill:#A0A0A0;}
	.st2{fill:#71CCFF;}
	.st3{fill:#231F20;}
	.st4{fill:#F9F9F9;}
	.st5{fill:#7A7979;}
	.st6{fill:#4C4C4C;}
	.st7{fill:#F9B630;}
	.st8{fill:#D88A0E;}
	.st9{fill:#FFEDCC;}
	.st10{fill:#C0E7F9;}
	.st11{fill:#08B26C;}
	.st12{fill:#15A9EA;}
	.st13{fill:none;stroke:#C9C9C9;stroke-width:10;stroke-linecap:round;stroke-linejoin:round;stroke-miterlimit:10;}
	.st14{fill:none;stroke:#231F20;stroke-width:10;stroke-linecap:round;stroke-linejoin:round;stroke-miterlimit:10;}
	.st15{fill:#FFFFFF;}
	.st16{fill:#35EF9F;}
	.st17{fill:#22A6E0;}
	.st18{fill:#FC3A6D;}
	.st19{fill:#FFA9C8;}
	.st20{fill:#038E52;}
	.st21{fill:#E2074B;}
</style>
<g>
	<g>
		<path class="st2" d="M278.9,495V73c0-37.6-30.5-68-68-68L14.5,5C9.2,5,5,9.2,5,14.5v0c0,5.2,4.2,9.5,9.5,9.5h92.3H63.1
			c-5.2,0-9.5,4.2-9.5,9.5v0c0,5.2,4.2,9.5,9.5,9.5h33.8H63.1c-5.2,0-9.5,4.2-9.5,9.5v0c0,5.2,4.2,9.5,9.5,9.5h33.8H63.1
			c-5.2,0-9.5,4.2-9.5,9.5v0c0,5.2,4.2,9.5,9.5,9.5h71.5c8.5,0,16-4.6,20-11.5c4.3-7.4,12.4-11.7,20.9-11.7h15.4
			c16.7,0,30.2,13.5,30.2,30.2V495"/>
	</g>
</g>
<g>
	<g>
		<g>
			<path class="st17" d="M264.8,31.6c-8.7-11.3-20.8-19.7-34.7-23.8c-14.7,13.3-24.9,31.5-28,52c11.1,4.5,19,15.3,19,28.1V495h20V73
				C241.1,55.4,250.6,40,264.8,31.6z"/>
		</g>
	</g>
</g>
<g>
	<g>
		<path class="st3" d="M278.9,500c-2.8,0-5-2.2-5-5V73c0-34.8-28.3-63-63-63H14.5C12,10,10,12,10,14.5s2,4.5,4.5,4.5h92.3
			c2.8,0,5,2.2,5,5s-2.2,5-5,5H63.1c-2.5,0-4.5,2-4.5,4.5s2,4.5,4.5,4.5h33.8c2.8,0,5,2.2,5,5s-2.2,5-5,5H63.1c-2.5,0-4.5,2-4.5,4.5
			s2,4.5,4.5,4.5h33.8c2.8,0,5,2.2,5,5s-2.2,5-5,5H63.1c-2.5,0-4.5,2-4.5,4.5s2,4.5,4.5,4.5h71.5c6.4,0,12.4-3.5,15.7-9
			c5.1-8.7,14.8-14.2,25.2-14.2h15.4c19.4,0,35.2,15.8,35.2,35.2V495c0,2.8-2.2,5-5,5s-5-2.2-5-5V87.8c0-13.9-11.3-25.2-25.2-25.2
			h-15.4c-6.9,0-13.3,3.5-16.6,9.2c-5,8.6-14.4,14-24.3,14H63.1c-8,0-14.5-6.5-14.5-14.5c0-3.6,1.3-6.9,3.5-9.5
			c-2.2-2.5-3.5-5.9-3.5-9.5s1.3-6.9,3.5-9.5c-2.2-2.5-3.5-5.9-3.5-9.5c0-1.6,0.2-3.1,0.7-4.5H14.5C6.5,28.9,0,22.4,0,14.5
			C0,6.5,6.5,0,14.5,0h196.4c40.3,0,73,32.8,73,73v422C283.9,497.8,281.7,500,278.9,500z"/>
	</g>
</g>
<g>
	<g>
		<path class="st3" d="M117.3,46c-8.2,0-14.9-6.7-14.9-14.9V5c0-2.8,2.2-5,5-5h19.8c2.8,0,5,2.2,5,5s-2.2,5-5,5h-14.8v21.1
			c0,2.7,2.2,4.9,4.9,4.9s4.9-2.2,4.9-4.9V23c0-2.8,2.2-5,5-5s5,2.2,5,5v8.1C132.3,39.3,125.6,46,117.3,46z"/>
	</g>
</g>
<g>
	<g>
		<path class="st7" d="M221.1,495V73c0-37.6,30.5-68,68-68l196.4,0c5.2,0,9.5,4.2,9.5,9.5v0c0,5.2-4.2,9.5-9.5,9.5h-92.3h43.8
			c5.2,0,9.5,4.2,9.5,9.5v0c0,5.2-4.2,9.5-9.5,9.5h-33.8h33.8c5.2,0,9.5,4.2,9.5,9.5v0c0,5.2-4.2,9.5-9.5,9.5h-33.8h33.8
			c5.2,0,9.5,4.2,9.5,9.5v0c0,5.2-4.2,9.5-9.5,9.5h-71.5c-8.5,0-16-4.6-20-11.5c-4.3-7.4-12.4-11.7-20.9-11.7h-15.4
			c-16.7,0-30.2,13.5-30.2,30.2V495"/>
	</g>
</g>
<g>
	<g>
		<path class="st3" d="M278.9,500c-2.8,0-5-2.2-5-5V87.8c0-19.4,15.8-35.2,35.2-35.2h15.4c10.5,0,20.1,5.4,25.2,14.2
			c3.3,5.6,9.3,9,15.7,9h71.5c2.5,0,4.5-2,4.5-4.5s-2-4.5-4.5-4.5h-33.8c-2.8,0-5-2.2-5-5s2.2-5,5-5h33.8c2.5,0,4.5-2,4.5-4.5
			s-2-4.5-4.5-4.5h-33.8c-2.8,0-5-2.2-5-5s2.2-5,5-5h33.8c2.5,0,4.5-2,4.5-4.5s-2-4.5-4.5-4.5h-43.8c-2.8,0-5-2.2-5-5s2.2-5,5-5
			h92.3c2.5,0,4.5-2,4.5-4.5s-2-4.5-4.5-4.5H289.1c-34.8,0-63,28.3-63,63v422c0,2.8-2.2,5-5,5s-5-2.2-5-5V73c0-40.3,32.8-73,73-73
			h196.4c8,0,14.5,6.5,14.5,14.5c0,8-6.5,14.5-14.5,14.5h-34.8c0.5,1.4,0.7,2.9,0.7,4.5c0,3.6-1.3,6.9-3.5,9.5
			c2.2,2.5,3.5,5.9,3.5,9.5s-1.3,6.9-3.5,9.5c2.2,2.5,3.5,5.9,3.5,9.5c0,8-6.5,14.5-14.5,14.5h-71.5c-10,0-19.3-5.3-24.3-14
			c-3.3-5.7-9.7-9.2-16.6-9.2h-15.4c-13.9,0-25.2,11.3-25.2,25.2V495C283.9,497.8,281.7,500,278.9,500z"/>
	</g>
</g>
<g>
	<g>
		<path class="st9" d="M241.1,418.3c-2.8,0-5-2.2-5-5V73c0-29.2,23.8-53,53-53h20.1c2.8,0,5,2.2,5,5s-2.2,5-5,5h-20.1
			c-23.7,0-43,19.3-43,43v340.3C246.1,416.1,243.8,418.3,241.1,418.3z"/>
	</g>
</g>
<g>
	<g>
		<path class="st9" d="M332.7,30h-4.2c-2.8,0-5-2.2-5-5s2.2-5,5-5h4.2c2.8,0,5,2.2,5,5S335.4,30,332.7,30z"/>
	</g>
</g>
<g>
	<g>
		<path class="st10" d="M210.9,30h-20.1c-2.8,0-5-2.2-5-5s2.2-5,5-5h20.1c2.8,0,5,2.2,5,5S213.7,30,210.9,30z"/>
	</g>
</g>
<g>
	<g>
		<path class="st10" d="M171.5,30h-4.2c-2.8,0-5-2.2-5-5s2.2-5,5-5h4.2c2.8,0,5,2.2,5,5S174.3,30,171.5,30z"/>
	</g>
</g>
<g>
	<g>
		<path class="st3" d="M382.7,46c-8.2,0-14.9-6.7-14.9-14.9V23c0-2.8,2.2-5,5-5s5,2.2,5,5v8.1c0,2.7,2.2,4.9,4.9,4.9
			s4.9-2.2,4.9-4.9V10h-14.8c-2.8,0-5-2.2-5-5s2.2-5,5-5h19.8c2.8,0,5,2.2,5,5v26.1C397.6,39.3,390.9,46,382.7,46z"/>
	</g>
</g>
<g>
	<g>
		<path class="st5" d="M318,495H182v-1.8c0-30.2,24.5-54.8,54.8-54.8h26.5c30.2,0,54.8,24.5,54.8,54.8V495z"/>
	</g>
</g>
<g>
	<g>
		<path class="st3" d="M318,500H182c-2.8,0-5-2.2-5-5v-1.8c0-32.9,26.8-59.8,59.8-59.8h26.5c32.9,0,59.8,26.8,59.8,59.8v1.8
			C323,497.8,320.8,500,318,500z M187.1,490h125.8c-1.7-25.9-23.3-46.5-49.6-46.5h-26.5C210.4,443.5,188.8,464.1,187.1,490z"/>
	</g>
</g>
<g>
	<g>
		<path class="st0" d="M263.3,463.5h-3.9c-2.8,0-5-2.2-5-5s2.2-5,5-5h3.9c2.8,0,5,2.2,5,5S266,463.5,263.3,463.5z"/>
	</g>
</g>
<g>
	<g>
		<path class="st0" d="M207.2,480c-0.9,0-1.8-0.2-2.6-0.8c-2.3-1.5-3.1-4.5-1.6-6.9c7.3-11.8,20-18.9,33.8-18.9h3.4c2.8,0,5,2.2,5,5
			s-2.2,5-5,5h-3.4c-10.4,0-19.8,5.3-25.3,14.1C210.5,479.2,208.9,480,207.2,480z"/>
	</g>
</g>
<g>
	<g>
		<path class="st3" d="M182,500h-61.5c-2.8,0-5-2.2-5-5s2.2-5,5-5H182c2.8,0,5,2.2,5,5S184.8,500,182,500z"/>
	</g>
</g>
<g>
	<g>
		<path class="st3" d="M100,500h-4.5c-2.8,0-5-2.2-5-5s2.2-5,5-5h4.5c2.8,0,5,2.2,5,5S102.8,500,100,500z"/>
	</g>
</g>
<g>
	<g>
		<path class="st3" d="M379.5,500H318c-2.8,0-5-2.2-5-5s2.2-5,5-5h61.5c2.8,0,5,2.2,5,5S382.3,500,379.5,500z"/>
	</g>
</g>
<g>
	<g>
		<path class="st3" d="M404.5,500H400c-2.8,0-5-2.2-5-5s2.2-5,5-5h4.5c2.8,0,5,2.2,5,5S407.3,500,404.5,500z"/>
	</g>
</g>
</svg>
